<?xml version="1.0" encoding="UTF-8"?>
<svg width="65px" height="129px" viewBox="0 0 260 129" version="1.1" xmlns="http://www.w3.org/2000/svg" xmlns:xlink="http://www.w3.org/1999/xlink">
    <title>payu</title>
    <g id="Page-1" stroke="none" stroke-width="1" fill="none" fill-rule="evenodd">
        <g id="Group" transform="translate(-282.000000, -131.385999)" fill="#A6C307" fill-rule="nonzero">
            <g id="Logos/payu" transform="translate(282.000000, 132.000000)">
                <path d="M109.256921,49.1157572 C112.658148,49.1157572 113.933214,50.1696191 114.78352,53.3319877 L125.41196,91.9075603 C126.687026,96.756421 128.17526,97.5996671 131.576487,97.5996671 C134.339787,97.5996671 136.0404,96.757204 137.103087,91.9075603 L146.455672,53.3319877 C147.305978,50.1696191 148.581044,49.1157572 151.982271,49.1157572 L153.045747,49.1157572 C154.320812,49.1157572 155.809046,49.326373 156.446974,50.1696191 C157.082533,51.8561113 156.870153,53.1213719 156.657774,54.3858496 L143.690793,105.819946 C139.864807,120.997593 133.276311,127.321547 121.159637,128.164793 L120.30933,128.164793 C117.759199,128.164793 116.908103,126.688917 116.483344,124.369794 L116.270965,123.31515 C116.058586,122.261288 115.845417,120.99681 116.483344,120.153564 C117.121272,119.310318 118.183958,119.098919 119.884572,118.889086 C127.961302,118.04584 130.724601,114.251624 133.487901,105.819946 C132.212836,106.241961 130.724601,106.452577 129.023988,106.452577 C120.096161,106.452577 117.75841,100.339238 115.633038,92.7508064 L105.005387,53.7532193 C104.579839,52.4887416 104.36746,51.0128652 105.005387,50.1696191 C105.643315,49.326373 107.130759,49.1157572 108.406614,49.1157572 L109.256921,49.1157572 Z M76.5220838,48.2725111 C92.8895025,48.2725111 100.966233,54.1752338 100.753853,66.6117434 L100.753853,66.6117434 L100.753853,88.7451917 C100.753853,101.392317 93.3142611,107.084424 76.5220838,107.084424 C62.4932062,107.084424 54.6280658,100.971086 54.6280658,89.5884378 C54.6280658,77.9943912 62.2800373,72.5136831 78.4350767,72.5136831 L78.4350767,72.5136831 L90.9757201,72.5136831 L90.9757201,66.6117434 C90.9757201,59.8657747 86.937355,57.1254207 76.9468424,57.1254207 C71.2078638,57.1254207 66.1060231,57.9686668 64.6185784,58.3906813 C63.9806509,58.6012971 63.3435129,58.6012971 62.9179648,58.6012971 C62.067658,58.6012971 61.2173512,58.1800655 60.7925926,57.5474352 C60.367834,56.9148049 60.1546651,56.0723417 60.1546651,54.8070811 L60.1546651,54.8070811 L60.1546651,53.7532193 C60.1546651,50.5916336 61.4305201,49.9590033 64.1938197,49.326373 C65.6812645,49.1157572 69.9327984,48.2725111 76.5220838,48.2725111 Z M240.832619,26.7716932 C242.532443,26.7716932 243.809087,28.0361709 243.809087,29.7226631 L243.809087,45.3215413 C243.808298,47.0080335 242.532443,48.2725111 240.832619,48.2725111 L232.967,48.272 L232.967478,78.4164058 C232.967478,84.74036 231.479244,90.0104523 228.715945,94.2258998 C223.402514,102.446962 212.986453,106.873025 198.319648,106.873025 C183.652843,106.873025 173.237572,102.446962 167.923352,94.2258998 C165.160052,90.0096693 163.672608,84.5289612 163.672608,78.4164058 L163.672608,39.4196016 C163.672608,33.0956474 166.222738,32.0417855 173.237572,32.0417855 L175.362155,32.0417855 C182.376988,32.0417855 184.927119,33.0956474 184.927119,39.4196016 L184.927119,78.4171887 C184.927119,80.946144 185.352667,82.844035 186.415353,84.5305271 C188.329136,87.4822799 192.155122,88.7467576 198.107269,88.7467576 C204.058627,88.7467576 207.885402,87.4822799 209.797606,84.5305271 C210.861081,83.0554337 211.28584,80.946927 211.28584,78.4171887 L211.28584,39.4196016 C211.28584,33.0956474 213.835971,32.0417855 220.850804,32.0417855 L222.339,32.041 L222.339038,29.7226631 C222.339038,28.0361709 223.614104,26.7716932 225.315507,26.7716932 L240.832619,26.7716932 Z M29.7583688,31.8303868 C46.9760943,31.8303868 55.0528244,39.4196016 54.6280658,55.6503272 C54.6280658,71.8818358 46.5513356,79.4694847 29.3336102,79.4694847 L29.3336102,79.4694847 L9.99051255,79.4694847 L9.99051255,101.603716 C9.99051255,104.9767 8.92782646,106.030562 5.52659933,106.030562 L5.52659933,106.030562 L4.46391323,106.030562 C1.0626861,106.030562 4.54747351e-13,104.977483 4.54747351e-13,101.603716 L4.54747351e-13,101.603716 L4.54747351e-13,44.688911 C4.54747351e-13,35.8360015 4.03836508,31.8303868 12.9661915,31.8303868 L12.9661915,31.8303868 Z M90.9757201,80.5249125 L78.6466665,80.5249125 C68.4437746,80.5249125 64.6177888,83.0546507 64.6177888,89.5892207 C64.6177888,95.4911604 68.4437746,98.4429132 76.5212943,98.4429132 C88.6379685,98.4429132 90.9757201,94.6479143 90.9757201,88.3247431 L90.9757201,88.3247431 L90.9757201,80.5249125 Z M29.9707481,41.3167096 L15.0915637,41.3167096 C11.6911261,41.3167096 10.4152712,42.5811872 10.4152712,45.9541716 L10.4152712,45.9541716 L10.4152712,69.9847278 L29.7583688,69.9847278 C42.2998017,69.9847278 44.6375532,64.9260342 44.6375532,55.6511102 C44.6375532,43.8456649 39.3241228,41.5273254 29.9707481,41.3167096 L29.9707481,41.3167096 Z M232.967478,39.4196016 C232.967478,33.0956474 230.204179,31.8303868 222.976966,32.0417855 L222.976966,32.0417855 L222.339038,32.0412551 L222.339038,45.3215413 C222.339038,47.0080335 223.614893,48.2725111 225.315507,48.2725111 L225.315507,48.2725111 L232.967038,48.2722551 Z M257.624796,10.5401847 C258.899862,10.5401847 259.962548,11.5940465 259.962548,12.8593072 L259.962548,24.4533537 C259.962548,25.7178313 258.899862,26.7716932 257.624796,26.7716932 L246.146049,26.7716932 C244.870984,26.7716932 243.808298,25.7178313 243.808298,24.4533537 L243.808298,12.8593072 C243.808298,11.5940465 244.870984,10.5401847 246.146049,10.5401847 L257.624796,10.5401847 Z M242.320064,-1.12976295e-12 C243.169581,-1.12976295e-12 243.808298,0.632630308 243.808298,1.4758764 L243.808298,9.27492404 C243.808298,10.1189531 243.169581,10.7508004 242.320064,10.7508004 L234.454923,10.7508004 C233.604616,10.7508004 232.966689,10.1181701 232.966689,9.27492404 L232.966689,1.4758764 C232.966689,0.632630308 233.604616,-1.12976295e-12 234.454923,-1.12976295e-12 L242.320064,-1.12976295e-12 Z" id="Combined-Shape"></path>
            </g>
        </g>
    </g>
</svg>