<svg xmlns="http://www.w3.org/2000/svg" width="150" height="74" viewBox="0 0 150 74">
  <g fill-rule="evenodd">
    <path d="M138.481556 16.2465753C139.508766 16.2465753 140.125091 17.0684932 140.125091 17.890411L140.125091 26.7260274C140.330533 27.7534247 139.508766 28.369863 138.481556 28.369863L134.167099 28.3685753 134.167275 23.4383562C134.167275 19.8184203 132.592934 18.9540857 128.673828 19.1115851L128.414901 19.1232877 128.004018 19.1232877 128.004018 26.7260274C128.004018 27.5479452 128.620343 28.369863 129.647553 28.369863L129.647553 28.369863 133.961099 28.3695753 133.961833 45.630137C133.961833 49.3287671 133.140066 52.2054795 131.49653 54.6712329 128.414901 59.3972603 122.457085 61.8630137 114.033966 61.8630137 105.610847 61.8630137 99.6530314 59.3972603 96.5714025 54.6712329 94.9278671 52.2054795 94.1060993 49.1232877 94.1060993 45.630137L94.1060993 23.4383562C94.1060993 19.739726 95.5441928 19.1232877 99.6530314 19.1232877L100.885683 19.1232877C104.994522 19.1232877 106.432615 19.739726 106.432615 23.4383562L106.432615 45.630137C106.432615 47.0684932 106.638057 48.0958904 107.254383 49.1232877 108.281592 50.7671233 110.541454 51.5890411 114.033966 51.5890411 117.526479 51.5890411 119.580898 50.7671233 120.81355 49.1232877 121.429876 48.3013699 121.635318 47.0684932 121.635318 45.630137L121.635318 23.4383562C121.635318 19.739726 123.073411 19.1232877 127.18225 19.1232877L128.003099 19.1225753 128.004018 17.890411C128.004018 16.8630137 128.825785 16.2465753 129.647553 16.2465753L138.481556 16.2465753zM148.137327 16.0410959L141.563185 16.0410959C140.741417 16.0410959 140.125091 15.4246575 140.125091 14.8082192L140.125091 8.23287671C140.125091 7.4109589 140.741417 7 141.563185 7L148.137327 7C148.959094 7 149.57542 7.61643836 149.57542 8.23287671L149.57542 14.8082192C149.57542 15.630137 148.959094 16.0410959 148.137327 16.0410959zM139.303324 7L134.783601 7C134.372717 7 133.961833 6.5890411 133.961833 6.17808219L133.961833 1.65753425C133.961833 1.24657534 134.372717.835616438 134.783601.835616438L139.303324.835616438C139.714207.835616438 140.125091 1.24657534 140.125091 1.65753425L140.125091 6.17808219C140.330533 6.5890411 139.919649 7 139.303324 7z"/>
    <path fill-rule="nonzero" d="M17.681702 19.1232877C27.5429145 19.1232877 32.2680789 23.4383562 31.6517531 32.6849315 31.6517531 41.9315068 27.1320307 46.2465753 17.2708181 46.2465753L17.2708181 46.2465753 6.17695398 46.2465753 6.17695398 58.9863014C6.17695398 60.8356164 5.5606282 61.4520548 3.71165084 61.4520548L3.71165084 61.4520548 3.09532505 61.4520548C1.2463477 61.4520548.630021914 60.8356164.630021914 58.9863014L.630021914 58.9863014.630021914 26.5205479C.630021914 21.3835616 2.88988313 19.1232877 8.02593134 19.1232877L8.02593134 19.1232877zM17.8871439 24.4657534L9.46402484 24.4657534C7.61504748 24.4657534 6.79327977 25.2876712 6.79327977 27.1369863L6.79327977 27.1369863 6.79327977 40.9041096 17.8871439 40.9041096C24.8721695 40.9041096 26.310263 38.0273973 26.310263 32.6849315 26.310263 25.9041096 23.228634 24.6712329 17.8871439 24.4657534L17.8871439 24.4657534zM44.5945946 28.369863C53.8394814 28.369863 58.5646457 31.8630137 58.3592038 38.6438356L58.3592038 38.6438356 58.3592038 51.3835616C58.3592038 58.5753425 54.2503652 61.8630137 44.5945946 61.8630137 36.5823594 61.8630137 32.062637 58.369863 32.062637 51.7945205 32.062637 45.0136986 36.3769175 41.9315068 45.6218042 41.9315068L45.6218042 41.9315068 53.0177137 41.9315068 53.0177137 38.6438356C53.0177137 34.9452055 50.7578524 33.3013699 45.0054785 33.3013699 41.7184076 33.3013699 38.8422206 33.9178082 38.0204529 34.1232877 37.609569 34.3287671 37.1986852 34.3287671 36.9932432 34.3287671 36.5823594 34.3287671 35.9660336 34.1232877 35.7605917 33.7123288 35.5551497 33.3013699 35.3497078 32.890411 35.3497078 32.0684932L35.3497078 32.0684932 35.3497078 31.4520548C35.3497078 29.8082192 35.9660336 29.3972603 37.609569 28.9863014 38.4313367 28.7808219 40.8966399 28.369863 44.5945946 28.369863zM52.8122717 46.8630137L45.8272462 46.8630137C40.0748722 46.8630137 37.815011 48.3013699 37.815011 52 37.815011 55.4931507 40.0748722 57.1369863 44.5945946 57.1369863 51.3741782 57.1369863 52.8122717 55.0821918 52.8122717 51.3835616L52.8122717 51.3835616 52.8122717 46.8630137zM90.4081446 31.8630137L83.0122352 61.2465753C80.752374 69.8767123 77.0544193 73.5753425 70.0693937 73.9863014L69.6585099 73.9863014C68.2204164 73.9863014 67.8095325 73.1643836 67.3986486 71.7260274L67.1932067 71.109589C66.9877648 70.4931507 66.9877648 69.8767123 67.3986486 69.260274 67.8095325 68.8493151 68.4258583 68.6438356 69.247626 68.4383562 73.7673484 68.0273973 75.4108839 65.7671233 77.0544193 61.0410959 76.2326516 61.2465753 75.4108839 61.4520548 74.5891161 61.4520548 69.4530679 61.4520548 68.2204164 57.9589041 66.9877648 53.6438356L60.8245069 31.2465753C60.619065 30.4246575 60.4136231 29.6027397 60.8245069 29.1917808 61.2353908 28.7808219 62.0571585 28.5753425 62.6734843 28.5753425L63.0843682 28.5753425C64.9333455 28.5753425 65.7551132 29.1917808 66.1659971 31.0410959L72.3292549 53.0273973C73.1510226 55.6986301 73.9727904 56.3150685 75.8217677 56.3150685 77.4653031 56.3150685 78.2870709 55.9041096 78.9033966 53.0273973L84.2448868 31.0410959C84.6557706 29.1917808 85.4775383 28.5753425 87.3265157 28.5753425L87.9428415 28.5753425C88.7646092 28.5753425 89.5863769 28.7808219 89.7918188 29.1917808 90.6135866 30.4246575 90.4081446 31.2465753 90.4081446 31.8630137z"/>
  </g>
</svg>
